<mxfile host="app.diagrams.net" modified="2023-07-07T10:17:36.788Z" agent="Mozilla/5.0 (Windows NT 10.0; Win64; x64) AppleWebKit/537.36 (KHTML, like Gecko) Chrome/114.0.0.0 Safari/537.36 Edg/114.0.1823.67" etag="Xy4fjdlGrCCCQKDEsEtJ" version="21.6.1" type="github">
  <diagram name="Page-1" id="Dt1h666ZMpDxTWcgM8gg">
    <mxGraphModel dx="1057" dy="579" grid="1" gridSize="10" guides="1" tooltips="1" connect="1" arrows="1" fold="1" page="1" pageScale="1" pageWidth="850" pageHeight="1100" math="0" shadow="0">
      <root>
        <mxCell id="0" />
        <mxCell id="1" parent="0" />
        <mxCell id="OpiiFMDQxXpOAbN_z1yb-27" value="" style="edgeStyle=orthogonalEdgeStyle;rounded=0;orthogonalLoop=1;jettySize=auto;html=1;" edge="1" parent="1" source="OpiiFMDQxXpOAbN_z1yb-25" target="OpiiFMDQxXpOAbN_z1yb-26">
          <mxGeometry relative="1" as="geometry" />
        </mxCell>
        <mxCell id="OpiiFMDQxXpOAbN_z1yb-25" value="&lt;font color=&quot;#ffffff&quot; style=&quot;font-size: 14px;&quot;&gt;Data Warehouse&lt;/font&gt;" style="rounded=0;whiteSpace=wrap;html=1;fillColor=#812BD6;" vertex="1" parent="1">
          <mxGeometry x="100" y="290" width="120" height="60" as="geometry" />
        </mxCell>
        <mxCell id="OpiiFMDQxXpOAbN_z1yb-29" value="" style="edgeStyle=orthogonalEdgeStyle;rounded=0;orthogonalLoop=1;jettySize=auto;html=1;" edge="1" parent="1" source="OpiiFMDQxXpOAbN_z1yb-26" target="OpiiFMDQxXpOAbN_z1yb-28">
          <mxGeometry relative="1" as="geometry" />
        </mxCell>
        <mxCell id="OpiiFMDQxXpOAbN_z1yb-26" value="&lt;font color=&quot;#ffffff&quot; style=&quot;font-size: 14px;&quot;&gt;Business Intelligence&lt;/font&gt;" style="whiteSpace=wrap;html=1;rounded=0;fillColor=#812BD6;" vertex="1" parent="1">
          <mxGeometry x="300" y="290" width="120" height="60" as="geometry" />
        </mxCell>
        <mxCell id="OpiiFMDQxXpOAbN_z1yb-31" value="" style="edgeStyle=orthogonalEdgeStyle;rounded=0;orthogonalLoop=1;jettySize=auto;html=1;" edge="1" parent="1" source="OpiiFMDQxXpOAbN_z1yb-28" target="OpiiFMDQxXpOAbN_z1yb-30">
          <mxGeometry relative="1" as="geometry" />
        </mxCell>
        <mxCell id="OpiiFMDQxXpOAbN_z1yb-28" value="Reports&lt;span style=&quot;white-space: pre;&quot;&gt;&#x9;&lt;/span&gt;" style="whiteSpace=wrap;html=1;rounded=0;" vertex="1" parent="1">
          <mxGeometry x="500" y="290" width="120" height="60" as="geometry" />
        </mxCell>
        <mxCell id="OpiiFMDQxXpOAbN_z1yb-30" value="&lt;font style=&quot;font-size: 14px;&quot;&gt;Notification Manger&lt;/font&gt;" style="whiteSpace=wrap;html=1;rounded=0;" vertex="1" parent="1">
          <mxGeometry x="700" y="290" width="120" height="60" as="geometry" />
        </mxCell>
      </root>
    </mxGraphModel>
  </diagram>
</mxfile>
